<svg width="1080" height="1080" viewBox="0 0 1080 1080" fill="none" xmlns="http://www.w3.org/2000/svg">
<path fill-rule="evenodd" clip-rule="evenodd" d="M74.2239 71C72.8128 71 71.9968 72.5591 72.7567 73.7482L266.82 377.439C269.439 381.538 273.929 384.018 278.793 384.018H540.156C623.613 384.018 675.787 457.797 675.481 540.405C675.176 623.014 619.577 696.056 540.156 696.056H276.606C273.981 696.056 271.856 698.184 271.856 700.808V1005.06C271.856 1007.69 273.925 1009.81 276.546 1009.81H607.556C876.255 1009.81 1009.84 754.933 1010 540.405C1010.16 325.877 878.145 71 607.556 71H74.2239ZM204.196 696.789H138.236C101.103 696.789 71 731.811 71 775.013V899V1008.41C71 1009.11 71.5713 1009.69 72.2759 1009.69H138.236C175.369 1009.69 205.472 974.663 205.472 931.461V698.065C205.472 697.36 204.9 696.789 204.196 696.789Z" fill="white"/>
</svg>
