<svg width="200" height="200" viewBox="0 0 200 200" fill="none" xmlns="http://www.w3.org/2000/svg">
<g clip-path="url(#clip0_155_1224)">
<path d="M126.958 0.520181C118.55 -1.73287 109.979 3.55555 108.221 12.0813L100.245 50.7675C95.0352 76.0372 75.2946 95.787 50.0274 101.009L12.0781 108.852C3.55325 110.613 -1.73268 119.185 0.520336 127.593C2.77361 136.003 11.6388 140.783 19.9029 138.044L56.8335 125.807C81.3881 117.671 108.429 124.917 125.626 144.24L151.492 173.305C157.279 179.808 167.345 180.101 173.499 173.946C179.655 167.79 179.361 157.723 172.857 151.937L143.603 125.914C124.226 108.678 116.961 81.5675 125.122 56.9521L137.406 19.8988C140.145 11.6369 135.366 2.77299 126.958 0.520181Z" fill="#F1F0EC" style="fill:#F1F0EC;fill:color(display-p3 0.9451 0.9412 0.9255);fill-opacity:1;"/>
<path d="M26.4412 48.9131C19.5649 42.6916 19.2973 31.9809 25.8544 25.4238C32.4115 18.8668 43.1222 19.1344 49.3436 26.0107L68.9027 47.6287C74.1786 53.4599 73.9551 62.4037 68.3947 67.9642C62.8342 73.5246 53.8904 73.748 48.0592 68.4722L26.4412 48.9131Z" fill="#F1F0EC" style="fill:#F1F0EC;fill:color(display-p3 0.9451 0.9412 0.9255);fill-opacity:1;"/>
<path d="M178.534 60.8658C187.36 58.0214 196.77 63.145 199.17 72.1021C201.57 81.0593 195.983 90.2012 186.917 92.151L158.415 98.2807C150.728 99.9341 143.094 95.2686 141.059 87.673C139.023 80.0773 143.302 72.2199 150.786 69.8079L178.534 60.8658Z" fill="#F1F0EC" style="fill:#F1F0EC;fill:color(display-p3 0.9451 0.9412 0.9255);fill-opacity:1;"/>
<path d="M91.4035 187.19C89.4537 196.256 80.3118 201.843 71.3546 199.443C62.3975 197.043 57.2739 187.633 60.1183 178.807L69.0604 151.059C71.4725 143.575 79.3298 139.296 86.9255 141.332C94.5212 143.367 99.1866 151.001 97.5332 158.689L91.4035 187.19Z" fill="#F1F0EC" style="fill:#F1F0EC;fill:color(display-p3 0.9451 0.9412 0.9255);fill-opacity:1;"/>
</g>
<defs>
<clipPath id="clip0_155_1224">
<rect width="200" height="200" fill="white" style="fill:white;fill-opacity:1;"/>
</clipPath>
</defs>
</svg>
